<?xml version="1.0" encoding="UTF-8" standalone="no"?>
<!-- Generator: Adobe Illustrator 15.0.0, SVG Export Plug-In . SVG Version: 6.00 Build 0)  -->

<svg
   xmlns:dc="http://purl.org/dc/elements/1.1/"
   xmlns:cc="http://creativecommons.org/ns#"
   xmlns:rdf="http://www.w3.org/1999/02/22-rdf-syntax-ns#"
   xmlns:svg="http://www.w3.org/2000/svg"
   xmlns="http://www.w3.org/2000/svg"
   xmlns:sodipodi="http://sodipodi.sourceforge.net/DTD/sodipodi-0.dtd"
   xmlns:inkscape="http://www.inkscape.org/namespaces/inkscape"
   version="1.1"
   id="Layer_1"
   x="0px"
   y="0px"
   width="64"
   height="64"
   viewBox="0 0 64 64"
   xml:space="preserve"
   sodipodi:docname="ICON.svg"
   inkscape:version="0.92.4 (5da689c313, 2019-01-14)"
   inkscape:export-filename="ICON.png"
   inkscape:export-xdpi="96"
   inkscape:export-ydpi="96"><metadata
   id="metadata833"><rdf:RDF><cc:Work
       rdf:about=""><dc:format>image/svg+xml</dc:format><dc:type
         rdf:resource="http://purl.org/dc/dcmitype/StillImage" /><dc:title></dc:title></cc:Work></rdf:RDF></metadata><defs
   id="defs831" /><sodipodi:namedview
   pagecolor="#ffffff"
   bordercolor="#666666"
   borderopacity="1"
   objecttolerance="10"
   gridtolerance="10"
   guidetolerance="10"
   inkscape:pageopacity="0"
   inkscape:pageshadow="2"
   inkscape:window-width="1842"
   inkscape:window-height="1051"
   id="namedview829"
   showgrid="false"
   inkscape:zoom="13.734375"
   inkscape:cx="29.764289"
   inkscape:cy="40.298308"
   inkscape:window-x="-9"
   inkscape:window-y="-9"
   inkscape:window-maximized="1"
   inkscape:current-layer="Layer_1"
   inkscape:pagecheckerboard="true" />



<g
   id="g846"
   inkscape:export-xdpi="96"
   inkscape:export-ydpi="96"><path
     sodipodi:nodetypes="ssccccssscccccccccc"
     class="st0"
     d="m 32.436859,2.7474409 c -17.098947,0 -29.4709887,9.6974951 -29.4709887,23.9402731 0,9.248333 8.7295907,17.269967 17.5238007,21.833856 l 2.32992,3.277603 C 22.053374,41.742142 18.947368,51.429234 18.947368,63 l 9.84719,-11.781691 c 1.027894,0.08611 -0.840295,-0.954372 0.220231,-0.954372 17.098947,0 32.383389,-9.479066 32.383389,-23.721843 0,-14.242778 -11.862372,-23.7946531 -28.961319,-23.7946531 z M 33.631578,32 H 30.36842 V 14.777778 h 3.263158 z m 0,6.888889 H 30.36842 v -3.444444 h 3.263158 z"
     style="opacity:1;fill:#fff9ff;fill-opacity:1;stroke-width:0.99999994"
     id="path841"
     inkscape:connector-curvature="0" /><ellipse
     style="fill:#ffaf6e;stroke-width:0.99999994"
     ry="15.5"
     rx="21.210526"
     cy="26.833334"
     cx="32"
     class="stshockcolor"
     id="268154894_shock_x5F_color_grid" /><path
     inkscape:connector-curvature="0"
     id="path826"
     style="opacity:1;fill:#231f20;stroke-width:0.99999994"
     d="M 31.999999,1.0000006 C 14.901052,1.0000006 1,12.590556 1,26.833334 c 0,9.248333 10.755281,19.736804 19.549491,24.300693 2.569645,1.43414 -1.188049,-2.604853 0,-3.857778 C 14.137014,44.936534 4.2631578,34.256111 4.2631578,26.833334 4.2631578,14.485 16.712105,4.444445 31.999999,4.444445 c 15.287894,0 27.736841,10.040555 27.736841,22.388889 0,12.348333 -12.448947,22.388888 -27.736841,22.388888 -1.468421,0 -2.920526,-0.120555 -4.323684,-0.292778 l -5.465789,5.752223 v -6.923334 c -1.12579,-0.344444 -2.218948,-0.757777 -3.263158,-1.222777 V 63 l 9.92,-10.471111 c 1.027894,0.08611 2.072105,0.137778 3.132631,0.137778 17.098947,0 30.999999,-11.590556 30.999999,-25.833333 0,-14.242778 -13.901052,-25.8333334 -30.999999,-25.8333334 z M 33.631578,32 H 30.36842 V 14.777778 h 3.263158 z m 0,6.888889 H 30.36842 v -3.444444 h 3.263158 z"
     class="st0"
     sodipodi:nodetypes="ssccssssccccccssscccccccccc" /></g></svg>