<?xml version="1.0" standalone="no"?>
<!DOCTYPE svg PUBLIC "-//W3C//DTD SVG 1.1//EN" "http://www.w3.org/Graphics/SVG/1.1/DTD/svg11.dtd">
<!--Generator: Xara Designer (www.xara.com), SVG filter version: 6.6.0.1-->
<svg fill="none" fill-rule="evenodd" stroke="black" stroke-width="0.501" stroke-linejoin="bevel" stroke-miterlimit="10" font-family="Times New Roman" font-size="16" style="font-variant-ligatures:none" xmlns:xlink="http://www.w3.org/1999/xlink" xmlns="http://www.w3.org/2000/svg" version="1.1" overflow="visible" width="96pt" height="96pt" viewBox="0 -96 96 96">
 <defs>
	</defs>
 <g id="Layer 1" transform="scale(1 -1)">
  <path d="M 47.457,89.823 C 22.313,89.823 6.791,76.152 6.791,56.553 C 6.791,43.824 17.097,32.104 31.377,23.704 L 30.291,6.583 L 38.457,17.104 C 39.969,16.985 44.216,21.904 45.777,21.904 C 70.919,21.904 89.696,35.663 89.696,55.263 C 89.696,74.863 72.6,89.823 47.457,89.823 Z M 51.884,49.241 L 47.085,49.241 L 47.085,72.94 L 51.884,72.94 Z M 51.884,39.762 L 47.085,39.762 L 47.085,44.501 L 51.884,44.501 Z" fill="#ffffff" fill-rule="nonzero" stroke-linejoin="miter" stroke="none" stroke-width="0.379" marker-start="none" marker-end="none"/>
  <ellipse cx="48" cy="55.498" rx="30.784" ry="22.5" fill-rule="nonzero" stroke-linejoin="miter" stroke="none" fill="#ffaf6e" stroke-width="0.375"/>
  <path d="M 47.998,93.001 C 23.178,93.001 3,76.175 3,55.499 C 3,42.074 18.612,26.848 31.378,20.223 C 35.108,18.141 29.654,24.005 31.378,25.822 C 22.069,29.219 7.736,44.722 7.736,55.499 C 7.736,73.425 25.808,88 47.998,88 C 70.191,88 88.262,73.425 88.262,55.499 C 88.262,37.574 70.191,22.999 47.998,22.999 C 45.867,22.999 43.76,23.173 41.723,23.422 L 33.788,15.073 L 33.788,25.124 C 32.154,25.623 30.567,26.223 29.052,26.899 L 29.052,2.999 L 43.452,18.199 C 44.944,18.073 46.46,17.997 48,17.997 C 72.821,17.997 93,34.824 93,55.497 C 93,76.175 72.821,93.001 48,93.001 Z M 50.367,47.999 L 45.631,47.999 L 45.631,72.999 L 50.367,72.999 Z M 50.367,37.999 L 45.631,37.999 L 45.631,42.998 L 50.367,42.998 Z" fill="#000000" fill-rule="nonzero" stroke-linejoin="miter" stroke="none" stroke-width="0.375" marker-start="none" marker-end="none"/>
 </g>
</svg>
